<svg version="1.1" xmlns="http://www.w3.org/2000/svg" xmlns:xlink="http://www.w3.org/1999/xlink"
    width="150px" height="150px" viewBox="0,0,256,256">
    <g fill="none" fill-rule="nonzero" stroke="none" stroke-width="none" stroke-linecap="butt"
        stroke-linejoin="none" stroke-miterlimit="10" stroke-dasharray="" stroke-dashoffset="0"
        font-family="none" font-weight="none" font-size="none" text-anchor="none"
        style="mix-blend-mode: normal">
        <path transform="scale(5.12,5.12)"
            d="M50,9v32h-50v-32zM10.90625,43c0.03125,0 28.0625,0 28.09375,0c0.35938,-0.00391 0.69531,0.18359 0.87891,0.49609c0.17969,0.3125 0.17969,0.69531 0,1.00781c-0.18359,0.3125 -0.51953,0.5 -0.87891,0.49609h-28c-0.55078,0.05078 -1.04297,-0.35547 -1.09375,-0.90625c-0.05078,-0.55078 0.35547,-1.04297 0.90625,-1.09375c0.03125,0 0.0625,0 0.09375,0z"
            id="strokeMainSVG" fill="#ff0000" stroke="#aaaaaa" stroke-width="2"
            stroke-linejoin="round"></path>
        <g transform="scale(5.12,5.12)" fill="#141414" stroke="none" stroke-width="1"
            stroke-linejoin="miter">
            <path
                d="M0,9v32h50v-32zM19.5,18.5c0.25,0 0.48828,0.11328 0.6875,0.3125l4.8125,4.78125l4.8125,-4.78125c0.39844,-0.39844 0.97656,-0.39844 1.375,0c0.39844,0.39844 0.39844,0.97656 0,1.375l-4.78125,4.8125l4.78125,4.8125c0.39844,0.39844 0.39844,0.97656 0,1.375c-0.19922,0.19922 -0.48828,0.3125 -0.6875,0.3125c-0.19922,0 -0.48828,-0.11328 -0.6875,-0.3125l-4.8125,-4.78125l-4.8125,4.78125c-0.19922,0.19922 -0.48828,0.3125 -0.6875,0.3125c-0.19922,0 -0.48828,-0.11328 -0.6875,-0.3125c-0.39844,-0.39844 -0.39844,-0.97656 0,-1.375l4.78125,-4.8125l-4.78125,-4.8125c-0.39844,-0.39844 -0.39844,-0.97656 0,-1.375c0.19922,-0.19922 0.4375,-0.3125 0.6875,-0.3125zM10.8125,43c-0.55078,0.05078 -0.95703,0.54297 -0.90625,1.09375c0.05078,0.55078 0.54297,0.95703 1.09375,0.90625h28c0.35938,0.00391 0.69531,-0.18359 0.87891,-0.49609c0.17969,-0.3125 0.17969,-0.69531 0,-1.00781c-0.18359,-0.3125 -0.51953,-0.5 -0.87891,-0.49609h-28c-0.03125,0 -0.0625,0 -0.09375,0c-0.03125,0 -0.0625,0 -0.09375,0z"></path>
        </g>
    </g>
</svg>